<svg xmlns="http://www.w3.org/2000/svg" xmlns:xlink="http://www.w3.org/1999/xlink" width="500" zoomAndPan="magnify" viewBox="0 0 375 374.999991" height="500" preserveAspectRatio="xMidYMid meet" version="1.0"><defs><g/><clipPath id="12694d5017"><path d="M 134.253906 115.976562 L 246.742188 115.976562 L 246.742188 205.976562 L 134.253906 205.976562 Z M 134.253906 115.976562 " clip-rule="nonzero"/></clipPath></defs><g clip-path="url(#12694d5017)"><path fill="#ff2768" d="M 190.480469 205.964844 C 180.457031 205.964844 170.96875 202.6875 163.035156 196.492188 C 161.371094 195.1875 159.785156 193.757812 158.316406 192.238281 L 138.101562 192.238281 C 136.007812 192.238281 134.304688 190.523438 134.304688 188.421875 C 134.304688 186.320312 136.007812 184.609375 138.101562 184.609375 L 190.480469 184.609375 C 191.144531 184.609375 191.808594 184.542969 192.453125 184.410156 C 197.027344 183.476562 200.351562 179.386719 200.351562 174.695312 C 200.351562 169.230469 195.921875 164.78125 190.480469 164.78125 C 185.824219 164.78125 181.441406 162.953125 178.140625 159.636719 C 174.839844 156.320312 173.023438 151.917969 173.023438 147.238281 C 173.023438 138.585938 179.457031 131.128906 187.988281 129.894531 C 188.921875 129.757812 189.714844 129.695312 190.480469 129.695312 L 210.820312 129.695312 C 209.890625 129.085938 208.9375 128.515625 207.960938 127.992188 C 202.609375 125.117188 196.5625 123.59375 190.480469 123.59375 C 189.300781 123.59375 188.101562 123.652344 186.917969 123.765625 C 169.230469 125.429688 155.15625 139.539062 153.460938 157.308594 C 153.015625 161.921875 153.40625 166.484375 154.613281 170.886719 L 190.480469 170.886719 C 192.574219 170.886719 194.277344 172.597656 194.277344 174.699219 C 194.277344 176.800781 192.574219 178.511719 190.480469 178.511719 L 138.101562 178.511719 C 136.007812 178.511719 134.304688 176.800781 134.304688 174.699219 C 134.304688 172.597656 136.007812 170.886719 138.101562 170.886719 L 146.796875 170.886719 C 145.644531 165.761719 145.390625 160.515625 146.050781 155.265625 C 148.699219 134.265625 165.851562 117.796875 186.835938 116.113281 C 188.046875 116.019531 189.277344 115.96875 190.484375 115.96875 C 200.507812 115.96875 209.996094 119.246094 217.929688 125.441406 C 219.597656 126.746094 221.183594 128.175781 222.648438 129.695312 L 242.863281 129.695312 C 244.957031 129.695312 246.660156 131.410156 246.660156 133.507812 C 246.660156 135.613281 244.957031 137.324219 242.863281 137.324219 L 190.480469 137.324219 C 189.820312 137.324219 189.152344 137.390625 188.507812 137.523438 C 183.75 138.496094 180.363281 142.910156 180.628906 147.785156 C 180.898438 152.878906 185.453125 157 190.996094 157.160156 C 200.339844 157.429688 207.945312 165.296875 207.945312 174.695312 C 207.945312 183.347656 201.507812 190.804688 192.976562 192.039062 C 192.042969 192.175781 191.25 192.238281 190.484375 192.238281 L 170.144531 192.238281 C 171.074219 192.847656 172.03125 193.417969 173.003906 193.941406 C 178.355469 196.816406 184.398438 198.335938 190.480469 198.335938 C 191.660156 198.335938 192.855469 198.28125 194.039062 198.167969 C 211.726562 196.503906 225.800781 182.402344 227.503906 164.632812 C 227.945312 160.011719 227.558594 155.449219 226.347656 151.050781 L 190.480469 151.050781 C 188.386719 151.050781 186.6875 149.335938 186.6875 147.238281 C 186.6875 145.132812 188.386719 143.421875 190.480469 143.421875 L 242.863281 143.421875 C 244.957031 143.421875 246.65625 145.136719 246.65625 147.238281 C 246.65625 149.339844 244.957031 151.050781 242.863281 151.050781 L 234.167969 151.050781 C 235.363281 156.359375 235.59375 161.789062 234.839844 167.226562 C 231.96875 187.929688 214.84375 204.160156 194.121094 205.820312 C 192.910156 205.914062 191.6875 205.964844 190.480469 205.964844 Z M 190.480469 205.964844 " fill-opacity="1" fill-rule="nonzero"/></g><g fill="#0d0a23" fill-opacity="1"><g transform="translate(115.485261, 240.175004)"><g><path d="M 2.078125 0 L 6.367188 0 L 6.367188 -19.496094 L 2.078125 -19.496094 Z M 2.078125 0 "/></g></g></g><g fill="#0d0a23" fill-opacity="1"><g transform="translate(123.38025, 240.175004)"><g><path d="M 9.78125 -13.257812 C 8.285156 -13.257812 6.984375 -12.542969 6.078125 -11.40625 L 6.078125 -12.996094 L 1.917969 -12.996094 L 1.917969 0 L 6.078125 0 L 6.078125 -7.539062 C 6.078125 -8.707031 7.050781 -9.585938 8.253906 -9.585938 C 9.457031 -9.585938 10.300781 -8.707031 10.300781 -7.539062 L 10.300781 0 L 14.425781 0 L 14.425781 -8.222656 C 14.425781 -11.082031 12.347656 -13.257812 9.78125 -13.257812 Z M 9.78125 -13.257812 "/></g></g></g><g fill="#0d0a23" fill-opacity="1"><g transform="translate(138.942952, 240.175004)"><g><path d="M 9.78125 -13.257812 C 8.285156 -13.257812 6.984375 -12.542969 6.078125 -11.40625 L 6.078125 -12.996094 L 1.917969 -12.996094 L 1.917969 0 L 6.078125 0 L 6.078125 -7.539062 C 6.078125 -8.707031 7.050781 -9.585938 8.253906 -9.585938 C 9.457031 -9.585938 10.300781 -8.707031 10.300781 -7.539062 L 10.300781 0 L 14.425781 0 L 14.425781 -8.222656 C 14.425781 -11.082031 12.347656 -13.257812 9.78125 -13.257812 Z M 9.78125 -13.257812 "/></g></g></g><g fill="#0d0a23" fill-opacity="1"><g transform="translate(154.505655, 240.175004)"><g><path d="M 8.253906 0.261719 C 12.609375 0.261719 15.46875 -2.597656 15.46875 -6.5 C 15.46875 -10.398438 12.609375 -13.257812 8.253906 -13.257812 C 3.898438 -13.257812 1.007812 -10.398438 1.007812 -6.5 C 1.007812 -2.597656 3.898438 0.261719 8.253906 0.261719 Z M 8.253906 -3.410156 C 6.464844 -3.445312 5.167969 -4.742188 5.167969 -6.5 C 5.167969 -8.253906 6.464844 -9.554688 8.253906 -9.585938 C 10.007812 -9.554688 11.339844 -8.253906 11.339844 -6.5 C 11.339844 -4.742188 10.007812 -3.445312 8.253906 -3.410156 Z M 8.253906 -3.410156 "/></g></g></g><g fill="#0d0a23" fill-opacity="1"><g transform="translate(170.490735, 240.175004)"><g><path d="M 7.929688 0.261719 C 11.566406 0.261719 14.65625 -1.882812 14.65625 -5.523438 C 14.65625 -12.738281 5.6875 -10.949219 5.6875 -14.328125 C 5.6875 -15.433594 6.53125 -15.953125 7.570312 -15.953125 C 8.675781 -15.953125 9.78125 -15.335938 10.753906 -14.265625 L 13.613281 -16.996094 C 12.183594 -18.652344 10.007812 -19.757812 7.605469 -19.757812 C 4.515625 -19.757812 1.363281 -17.902344 1.363281 -14.003906 C 1.363281 -7.375 10.367188 -8.96875 10.367188 -5.554688 C 10.367188 -4.484375 9.457031 -3.769531 7.960938 -3.769531 C 6.171875 -3.769531 4.777344 -4.777344 4.0625 -6.304688 L 0.519531 -4.09375 C 1.789062 -1.65625 4.515625 0.261719 7.929688 0.261719 Z M 7.929688 0.261719 "/></g></g></g><g fill="#0d0a23" fill-opacity="1"><g transform="translate(185.371144, 240.175004)"><g><path d="M 15.140625 -6.53125 C 15.140625 -10.59375 12.347656 -13.289062 8.15625 -13.289062 C 3.964844 -13.289062 1.007812 -10.558594 1.007812 -6.5 C 1.007812 -2.4375 3.933594 0.261719 8.285156 0.261719 C 11.894531 0.261719 14.296875 -1.65625 14.945312 -4.484375 L 10.949219 -4.484375 C 10.59375 -3.445312 9.652344 -2.828125 8.222656 -2.828125 C 6.335938 -2.828125 5.363281 -3.964844 5.199219 -5.816406 L 15.140625 -5.816406 Z M 8.222656 -10.105469 C 9.617188 -10.105469 10.429688 -9.457031 10.851562 -8.320312 L 5.457031 -8.320312 C 5.882812 -9.421875 6.757812 -10.105469 8.222656 -10.105469 Z M 8.222656 -10.105469 "/></g></g></g><g fill="#0d0a23" fill-opacity="1"><g transform="translate(200.966338, 240.175004)"><g><path d="M 9.78125 -13.257812 C 8.285156 -13.257812 6.984375 -12.542969 6.078125 -11.40625 L 6.078125 -12.996094 L 1.917969 -12.996094 L 1.917969 0 L 6.078125 0 L 6.078125 -7.539062 C 6.078125 -8.707031 7.050781 -9.585938 8.253906 -9.585938 C 9.457031 -9.585938 10.300781 -8.707031 10.300781 -7.539062 L 10.300781 0 L 14.425781 0 L 14.425781 -8.222656 C 14.425781 -11.082031 12.347656 -13.257812 9.78125 -13.257812 Z M 9.78125 -13.257812 "/></g></g></g><g fill="#0d0a23" fill-opacity="1"><g transform="translate(216.529043, 240.175004)"><g><path d="M 11.144531 -22.257812 L 11.144531 -11.859375 C 10.171875 -12.738281 8.9375 -13.257812 7.441406 -13.257812 C 3.835938 -13.257812 1.007812 -10.269531 1.007812 -6.5 C 1.007812 -2.730469 3.835938 0.261719 7.441406 0.261719 C 8.9375 0.261719 10.171875 -0.261719 11.144531 -1.136719 L 11.144531 0.03125 L 15.273438 0 L 15.273438 -22.257812 Z M 8.253906 -3.410156 C 6.53125 -3.410156 5.167969 -4.777344 5.167969 -6.5 C 5.167969 -8.222656 6.53125 -9.585938 8.253906 -9.585938 C 9.941406 -9.585938 11.339844 -8.222656 11.339844 -6.5 C 11.339844 -4.777344 9.941406 -3.410156 8.253906 -3.410156 Z M 8.253906 -3.410156 "/></g></g></g><g fill="#0d0a23" fill-opacity="1"><g transform="translate(233.196423, 240.175004)"><g><path d="M 15.140625 -6.53125 C 15.140625 -10.59375 12.347656 -13.289062 8.15625 -13.289062 C 3.964844 -13.289062 1.007812 -10.558594 1.007812 -6.5 C 1.007812 -2.4375 3.933594 0.261719 8.285156 0.261719 C 11.894531 0.261719 14.296875 -1.65625 14.945312 -4.484375 L 10.949219 -4.484375 C 10.59375 -3.445312 9.652344 -2.828125 8.222656 -2.828125 C 6.335938 -2.828125 5.363281 -3.964844 5.199219 -5.816406 L 15.140625 -5.816406 Z M 8.222656 -10.105469 C 9.617188 -10.105469 10.429688 -9.457031 10.851562 -8.320312 L 5.457031 -8.320312 C 5.882812 -9.421875 6.757812 -10.105469 8.222656 -10.105469 Z M 8.222656 -10.105469 "/></g></g></g><g fill="#0d0a23" fill-opacity="1"><g transform="translate(248.791618, 240.175004)"><g><path d="M 9.714844 -13.257812 C 8.1875 -13.257812 6.921875 -12.476562 6.078125 -11.210938 L 6.078125 -12.996094 L 1.917969 -12.996094 L 1.917969 0 L 6.078125 0 L 6.078125 -6.207031 C 6.078125 -8.351562 7.539062 -9.585938 9.585938 -9.585938 C 10.074219 -9.585938 10.496094 -9.519531 10.789062 -9.457031 L 10.789062 -13.128906 C 10.496094 -13.226562 10.105469 -13.257812 9.714844 -13.257812 Z M 9.714844 -13.257812 "/></g></g></g><g fill="#0d0a23" fill-opacity="1"><g transform="translate(121.343646, 251.599992)"><g><path d="M 2.824219 -6.335938 C 1.683594 -6.335938 0.757812 -5.660156 0.757812 -4.589844 C 0.757812 -3.5625 1.519531 -3.121094 2.617188 -2.871094 C 3.707031 -2.617188 4.140625 -2.277344 4.140625 -1.519531 C 4.140625 -0.871094 3.5625 -0.484375 2.851562 -0.484375 C 2.042969 -0.484375 1.476562 -0.945312 1.296875 -1.765625 L 0.46875 -1.765625 C 0.601562 -0.566406 1.46875 0.125 2.835938 0.125 C 4.03125 0.125 4.96875 -0.574219 4.96875 -1.664062 C 4.96875 -2.71875 4.285156 -3.277344 2.914062 -3.589844 C 1.972656 -3.808594 1.585938 -4.09375 1.585938 -4.769531 C 1.585938 -5.417969 2.105469 -5.722656 2.761719 -5.722656 C 3.546875 -5.722656 4.003906 -5.273438 4.078125 -4.492188 L 4.90625 -4.492188 C 4.789062 -5.554688 4.113281 -6.335938 2.824219 -6.335938 Z M 2.824219 -6.335938 "/></g></g></g><g fill="#0d0a23" fill-opacity="1"><g transform="translate(127.688683, 251.599992)"><g><path d="M 5.507812 -5.578125 L 5.507812 -6.210938 L 0.304688 -6.210938 L 0.304688 -5.578125 L 2.519531 -5.578125 L 2.519531 0 L 3.292969 0 L 3.292969 -5.578125 Z M 5.507812 -5.578125 "/></g></g></g><g fill="#0d0a23" fill-opacity="1"><g transform="translate(134.276725, 251.599992)"><g><path d="M 5.03125 -0.628906 L 1.675781 -0.628906 L 1.675781 -2.789062 L 4.671875 -2.789062 L 4.671875 -3.421875 L 1.675781 -3.421875 L 1.675781 -5.578125 L 4.941406 -5.578125 L 4.941406 -6.210938 L 0.898438 -6.210938 L 0.898438 0 L 5.03125 0 Z M 5.03125 -0.628906 "/></g></g></g><g fill="#0d0a23" fill-opacity="1"><g transform="translate(140.639764, 251.599992)"><g><path d="M 4.105469 -2.195312 L 4.84375 0 L 5.679688 0 L 3.535156 -6.210938 L 2.492188 -6.210938 L 0.261719 0 L 1.089844 0 L 1.816406 -2.195312 Z M 2.035156 -2.824219 L 2.996094 -5.597656 L 3.898438 -2.824219 Z M 2.035156 -2.824219 "/></g></g></g><g fill="#0d0a23" fill-opacity="1"><g transform="translate(147.470809, 251.599992)"><g><path d="M 5.03125 -0.628906 L 1.675781 -0.628906 L 1.675781 -6.210938 L 0.898438 -6.210938 L 0.898438 0 L 5.03125 0 Z M 5.03125 -0.628906 "/></g></g></g><g fill="#0d0a23" fill-opacity="1"><g transform="translate(153.725852, 251.599992)"><g><path d="M 5.507812 -5.578125 L 5.507812 -6.210938 L 0.304688 -6.210938 L 0.304688 -5.578125 L 2.519531 -5.578125 L 2.519531 0 L 3.292969 0 L 3.292969 -5.578125 Z M 5.507812 -5.578125 "/></g></g></g><g fill="#0d0a23" fill-opacity="1"><g transform="translate(160.313894, 251.599992)"><g><path d="M 5.867188 -6.210938 L 5.09375 -6.210938 L 5.09375 -3.367188 L 1.675781 -3.367188 L 1.675781 -6.210938 L 0.898438 -6.210938 L 0.898438 0 L 1.675781 0 L 1.675781 -2.71875 L 5.09375 -2.71875 L 5.09375 0 L 5.867188 0 Z M 5.867188 -6.210938 "/></g></g></g><g fill="#0d0a23" fill-opacity="1"><g transform="translate(167.963937, 251.599992)"><g/></g></g><g fill="#0d0a23" fill-opacity="1"><g transform="translate(170.987958, 251.599992)"><g><path d="M 4.105469 -2.195312 L 4.84375 0 L 5.679688 0 L 3.535156 -6.210938 L 2.492188 -6.210938 L 0.261719 0 L 1.089844 0 L 1.816406 -2.195312 Z M 2.035156 -2.824219 L 2.996094 -5.597656 L 3.898438 -2.824219 Z M 2.035156 -2.824219 "/></g></g></g><g fill="#0d0a23" fill-opacity="1"><g transform="translate(177.819005, 251.599992)"><g><path d="M 3.582031 -6.175781 C 3.265625 -6.210938 3.121094 -6.210938 2.789062 -6.210938 L 0.898438 -6.210938 L 0.898438 0 L 2.746094 0 C 3.078125 0 3.222656 0 3.535156 -0.0351562 C 4.976562 -0.214844 6.039062 -1.351562 6.039062 -3.175781 C 6.039062 -5.03125 5.023438 -5.992188 3.582031 -6.175781 Z M 3.457031 -0.675781 C 3.257812 -0.640625 3.023438 -0.628906 2.699219 -0.628906 L 1.675781 -0.628906 L 1.675781 -5.578125 L 2.746094 -5.578125 C 3.070312 -5.578125 3.304688 -5.570312 3.5 -5.535156 C 4.554688 -5.363281 5.191406 -4.554688 5.191406 -3.175781 C 5.191406 -1.710938 4.507812 -0.847656 3.457031 -0.675781 Z M 3.457031 -0.675781 "/></g></g></g><g fill="#0d0a23" fill-opacity="1"><g transform="translate(185.280049, 251.599992)"><g><path d="M 3.582031 -6.175781 C 3.265625 -6.210938 3.121094 -6.210938 2.789062 -6.210938 L 0.898438 -6.210938 L 0.898438 0 L 2.746094 0 C 3.078125 0 3.222656 0 3.535156 -0.0351562 C 4.976562 -0.214844 6.039062 -1.351562 6.039062 -3.175781 C 6.039062 -5.03125 5.023438 -5.992188 3.582031 -6.175781 Z M 3.457031 -0.675781 C 3.257812 -0.640625 3.023438 -0.628906 2.699219 -0.628906 L 1.675781 -0.628906 L 1.675781 -5.578125 L 2.746094 -5.578125 C 3.070312 -5.578125 3.304688 -5.570312 3.5 -5.535156 C 4.554688 -5.363281 5.191406 -4.554688 5.191406 -3.175781 C 5.191406 -1.710938 4.507812 -0.847656 3.457031 -0.675781 Z M 3.457031 -0.675781 "/></g></g></g><g fill="#0d0a23" fill-opacity="1"><g transform="translate(192.741093, 251.599992)"><g><path d="M 4.984375 -1.628906 C 4.933594 -2.25 4.6875 -2.816406 4.183594 -3.050781 C 4.761719 -3.230469 5.292969 -3.699219 5.292969 -4.519531 C 5.292969 -5.5625 4.644531 -6.058594 3.742188 -6.175781 C 3.464844 -6.210938 3.25 -6.210938 2.933594 -6.210938 L 0.898438 -6.210938 L 0.898438 0 L 1.675781 0 L 1.675781 -2.671875 L 2.84375 -2.671875 C 2.988281 -2.671875 3.140625 -2.671875 3.285156 -2.664062 C 3.898438 -2.617188 4.140625 -2.195312 4.210938 -1.558594 C 4.292969 -0.792969 4.375 -0.394531 4.546875 0 L 5.398438 0 C 5.148438 -0.332031 5.058594 -0.820312 4.984375 -1.628906 Z M 1.675781 -3.304688 L 1.675781 -5.578125 L 2.933594 -5.578125 C 3.214844 -5.578125 3.382812 -5.570312 3.554688 -5.542969 C 4.132812 -5.453125 4.464844 -5.140625 4.464844 -4.445312 C 4.464844 -3.742188 4.039062 -3.375 3.464844 -3.320312 C 3.292969 -3.304688 3.140625 -3.304688 2.863281 -3.304688 Z M 1.675781 -3.304688 "/></g></g></g><g fill="#0d0a23" fill-opacity="1"><g transform="translate(199.392135, 251.599992)"><g><path d="M 5.03125 -0.628906 L 1.675781 -0.628906 L 1.675781 -2.789062 L 4.671875 -2.789062 L 4.671875 -3.421875 L 1.675781 -3.421875 L 1.675781 -5.578125 L 4.941406 -5.578125 L 4.941406 -6.210938 L 0.898438 -6.210938 L 0.898438 0 L 5.03125 0 Z M 5.03125 -0.628906 "/></g></g></g><g fill="#0d0a23" fill-opacity="1"><g transform="translate(205.755176, 251.599992)"><g><path d="M 2.824219 -6.335938 C 1.683594 -6.335938 0.757812 -5.660156 0.757812 -4.589844 C 0.757812 -3.5625 1.519531 -3.121094 2.617188 -2.871094 C 3.707031 -2.617188 4.140625 -2.277344 4.140625 -1.519531 C 4.140625 -0.871094 3.5625 -0.484375 2.851562 -0.484375 C 2.042969 -0.484375 1.476562 -0.945312 1.296875 -1.765625 L 0.46875 -1.765625 C 0.601562 -0.566406 1.46875 0.125 2.835938 0.125 C 4.03125 0.125 4.96875 -0.574219 4.96875 -1.664062 C 4.96875 -2.71875 4.285156 -3.277344 2.914062 -3.589844 C 1.972656 -3.808594 1.585938 -4.09375 1.585938 -4.769531 C 1.585938 -5.417969 2.105469 -5.722656 2.761719 -5.722656 C 3.546875 -5.722656 4.003906 -5.273438 4.078125 -4.492188 L 4.90625 -4.492188 C 4.789062 -5.554688 4.113281 -6.335938 2.824219 -6.335938 Z M 2.824219 -6.335938 "/></g></g></g><g fill="#0d0a23" fill-opacity="1"><g transform="translate(212.100215, 251.599992)"><g><path d="M 2.824219 -6.335938 C 1.683594 -6.335938 0.757812 -5.660156 0.757812 -4.589844 C 0.757812 -3.5625 1.519531 -3.121094 2.617188 -2.871094 C 3.707031 -2.617188 4.140625 -2.277344 4.140625 -1.519531 C 4.140625 -0.871094 3.5625 -0.484375 2.851562 -0.484375 C 2.042969 -0.484375 1.476562 -0.945312 1.296875 -1.765625 L 0.46875 -1.765625 C 0.601562 -0.566406 1.46875 0.125 2.835938 0.125 C 4.03125 0.125 4.96875 -0.574219 4.96875 -1.664062 C 4.96875 -2.71875 4.285156 -3.277344 2.914062 -3.589844 C 1.972656 -3.808594 1.585938 -4.09375 1.585938 -4.769531 C 1.585938 -5.417969 2.105469 -5.722656 2.761719 -5.722656 C 3.546875 -5.722656 4.003906 -5.273438 4.078125 -4.492188 L 4.90625 -4.492188 C 4.789062 -5.554688 4.113281 -6.335938 2.824219 -6.335938 Z M 2.824219 -6.335938 "/></g></g></g><g fill="#0d0a23" fill-opacity="1"><g transform="translate(218.445248, 251.599992)"><g><path d="M 5.03125 -0.628906 L 1.675781 -0.628906 L 1.675781 -2.789062 L 4.671875 -2.789062 L 4.671875 -3.421875 L 1.675781 -3.421875 L 1.675781 -5.578125 L 4.941406 -5.578125 L 4.941406 -6.210938 L 0.898438 -6.210938 L 0.898438 0 L 5.03125 0 Z M 5.03125 -0.628906 "/></g></g></g><g fill="#0d0a23" fill-opacity="1"><g transform="translate(224.808288, 251.599992)"><g><path d="M 2.824219 -6.335938 C 1.683594 -6.335938 0.757812 -5.660156 0.757812 -4.589844 C 0.757812 -3.5625 1.519531 -3.121094 2.617188 -2.871094 C 3.707031 -2.617188 4.140625 -2.277344 4.140625 -1.519531 C 4.140625 -0.871094 3.5625 -0.484375 2.851562 -0.484375 C 2.042969 -0.484375 1.476562 -0.945312 1.296875 -1.765625 L 0.46875 -1.765625 C 0.601562 -0.566406 1.46875 0.125 2.835938 0.125 C 4.03125 0.125 4.96875 -0.574219 4.96875 -1.664062 C 4.96875 -2.71875 4.285156 -3.277344 2.914062 -3.589844 C 1.972656 -3.808594 1.585938 -4.09375 1.585938 -4.769531 C 1.585938 -5.417969 2.105469 -5.722656 2.761719 -5.722656 C 3.546875 -5.722656 4.003906 -5.273438 4.078125 -4.492188 L 4.90625 -4.492188 C 4.789062 -5.554688 4.113281 -6.335938 2.824219 -6.335938 Z M 2.824219 -6.335938 "/></g></g></g><g fill="#0d0a23" fill-opacity="1"><g transform="translate(231.153327, 251.599992)"><g/></g></g><g fill="#0d0a23" fill-opacity="1"><g transform="translate(234.177348, 251.599992)"><g><path d="M 1.675781 -5.578125 L 4.941406 -5.578125 L 4.941406 -6.210938 L 0.898438 -6.210938 L 0.898438 0 L 1.675781 0 L 1.675781 -2.789062 L 4.582031 -2.789062 L 4.582031 -3.421875 L 1.675781 -3.421875 Z M 1.675781 -5.578125 "/></g></g></g><g fill="#0d0a23" fill-opacity="1"><g transform="translate(240.360385, 251.599992)"><g><path d="M 3.355469 -6.335938 C 1.46875 -6.335938 0.421875 -5.003906 0.421875 -3.105469 C 0.421875 -1.214844 1.46875 0.125 3.355469 0.125 C 5.246094 0.125 6.289062 -1.214844 6.289062 -3.105469 C 6.289062 -5.003906 5.246094 -6.335938 3.355469 -6.335938 Z M 3.355469 -0.484375 C 2.050781 -0.484375 1.285156 -1.492188 1.285156 -3.105469 C 1.285156 -4.726562 2.050781 -5.722656 3.355469 -5.722656 C 4.660156 -5.722656 5.425781 -4.726562 5.425781 -3.105469 C 5.425781 -1.492188 4.660156 -0.484375 3.355469 -0.484375 Z M 3.355469 -0.484375 "/></g></g></g><g fill="#0d0a23" fill-opacity="1"><g transform="translate(248.073427, 251.599992)"><g><path d="M 4.984375 -1.628906 C 4.933594 -2.25 4.6875 -2.816406 4.183594 -3.050781 C 4.761719 -3.230469 5.292969 -3.699219 5.292969 -4.519531 C 5.292969 -5.5625 4.644531 -6.058594 3.742188 -6.175781 C 3.464844 -6.210938 3.25 -6.210938 2.933594 -6.210938 L 0.898438 -6.210938 L 0.898438 0 L 1.675781 0 L 1.675781 -2.671875 L 2.84375 -2.671875 C 2.988281 -2.671875 3.140625 -2.671875 3.285156 -2.664062 C 3.898438 -2.617188 4.140625 -2.195312 4.210938 -1.558594 C 4.292969 -0.792969 4.375 -0.394531 4.546875 0 L 5.398438 0 C 5.148438 -0.332031 5.058594 -0.820312 4.984375 -1.628906 Z M 1.675781 -3.304688 L 1.675781 -5.578125 L 2.933594 -5.578125 C 3.214844 -5.578125 3.382812 -5.570312 3.554688 -5.542969 C 4.132812 -5.453125 4.464844 -5.140625 4.464844 -4.445312 C 4.464844 -3.742188 4.039062 -3.375 3.464844 -3.320312 C 3.292969 -3.304688 3.140625 -3.304688 2.863281 -3.304688 Z M 1.675781 -3.304688 "/></g></g></g><g fill="#0d0a23" fill-opacity="1"><g transform="translate(167.281143, 262.849992)"><g><path d="M 2.824219 -6.335938 C 1.683594 -6.335938 0.757812 -5.660156 0.757812 -4.589844 C 0.757812 -3.5625 1.519531 -3.121094 2.617188 -2.871094 C 3.707031 -2.617188 4.140625 -2.277344 4.140625 -1.519531 C 4.140625 -0.871094 3.5625 -0.484375 2.851562 -0.484375 C 2.042969 -0.484375 1.476562 -0.945312 1.296875 -1.765625 L 0.46875 -1.765625 C 0.601562 -0.566406 1.46875 0.125 2.835938 0.125 C 4.03125 0.125 4.96875 -0.574219 4.96875 -1.664062 C 4.96875 -2.71875 4.285156 -3.277344 2.914062 -3.589844 C 1.972656 -3.808594 1.585938 -4.09375 1.585938 -4.769531 C 1.585938 -5.417969 2.105469 -5.722656 2.761719 -5.722656 C 3.546875 -5.722656 4.003906 -5.273438 4.078125 -4.492188 L 4.90625 -4.492188 C 4.789062 -5.554688 4.113281 -6.335938 2.824219 -6.335938 Z M 2.824219 -6.335938 "/></g></g></g><g fill="#0d0a23" fill-opacity="1"><g transform="translate(173.62618, 262.849992)"><g><path d="M 3.355469 -6.335938 C 1.46875 -6.335938 0.421875 -5.003906 0.421875 -3.105469 C 0.421875 -1.214844 1.46875 0.125 3.355469 0.125 C 5.246094 0.125 6.289062 -1.214844 6.289062 -3.105469 C 6.289062 -5.003906 5.246094 -6.335938 3.355469 -6.335938 Z M 3.355469 -0.484375 C 2.050781 -0.484375 1.285156 -1.492188 1.285156 -3.105469 C 1.285156 -4.726562 2.050781 -5.722656 3.355469 -5.722656 C 4.660156 -5.722656 5.425781 -4.726562 5.425781 -3.105469 C 5.425781 -1.492188 4.660156 -0.484375 3.355469 -0.484375 Z M 3.355469 -0.484375 "/></g></g></g><g fill="#0d0a23" fill-opacity="1"><g transform="translate(181.339222, 262.849992)"><g><path d="M 5.03125 -0.628906 L 1.675781 -0.628906 L 1.675781 -6.210938 L 0.898438 -6.210938 L 0.898438 0 L 5.03125 0 Z M 5.03125 -0.628906 "/></g></g></g><g fill="#0d0a23" fill-opacity="1"><g transform="translate(187.594263, 262.849992)"><g><path d="M 4.105469 -2.195312 L 4.84375 0 L 5.679688 0 L 3.535156 -6.210938 L 2.492188 -6.210938 L 0.261719 0 L 1.089844 0 L 1.816406 -2.195312 Z M 2.035156 -2.824219 L 2.996094 -5.597656 L 3.898438 -2.824219 Z M 2.035156 -2.824219 "/></g></g></g><g fill="#0d0a23" fill-opacity="1"><g transform="translate(194.425308, 262.849992)"><g><path d="M 5.761719 0 L 5.742188 -6.210938 L 4.984375 -6.210938 L 4.984375 -3.105469 C 4.984375 -2.375 4.996094 -1.484375 5.011719 -0.757812 L 2.089844 -6.210938 L 0.898438 -6.210938 L 0.898438 0 L 1.675781 0 L 1.675781 -3.105469 C 1.675781 -3.835938 1.664062 -4.726562 1.648438 -5.453125 L 4.570312 0 Z M 5.761719 0 "/></g></g></g><g fill="#0d0a23" fill-opacity="1"><g transform="translate(201.967353, 262.849992)"><g><path d="M 4.105469 -2.195312 L 4.84375 0 L 5.679688 0 L 3.535156 -6.210938 L 2.492188 -6.210938 L 0.261719 0 L 1.089844 0 L 1.816406 -2.195312 Z M 2.035156 -2.824219 L 2.996094 -5.597656 L 3.898438 -2.824219 Z M 2.035156 -2.824219 "/></g></g></g></svg>